<svg width="234" height="84" viewBox="0 0 234 84" fill="none" xmlns="http://www.w3.org/2000/svg">
<path d="M15.775 72.77C24.135 72.77 30.075 68.37 30.075 60.945C30.075 52.805 23.53 50.77 17.7 49.01C11.705 47.195 10.77 45.985 10.77 44.225C10.77 42.685 12.145 41.31 14.895 41.31C18.415 41.31 20.23 43.015 21.55 45.765L28.975 41.42C26.17 35.755 21.22 32.73 14.895 32.73C8.24 32.73 1.97 37.02 1.97 44.445C1.97 51.815 7.58 54.565 13.3 56.16C19.075 57.755 21.275 58.69 21.275 61.055C21.275 62.54 20.23 64.19 16.05 64.19C11.705 64.19 9.34 62.045 7.965 58.855L0.375 63.255C2.52 68.92 7.69 72.77 15.775 72.77ZM41.5485 61.55H61.0735C61.2935 60.505 61.4035 59.405 61.4035 58.25C61.4035 49.945 55.4635 43.73 47.4335 43.73C38.7435 43.73 32.8035 50.055 32.8035 58.25C32.8035 66.445 38.6335 72.77 48.0385 72.77C53.2635 72.77 57.3335 70.845 60.0285 67.105L53.4285 63.31C52.3285 64.52 50.4035 65.4 48.1485 65.4C45.1235 65.4 42.5935 64.41 41.5485 61.55ZM41.3835 55.39C42.1535 52.585 44.2435 51.045 47.3785 51.045C49.8535 51.045 52.3285 52.2 53.2085 55.39H41.3835ZM85.1743 44.5V47.305C83.3593 45.05 80.7193 43.73 77.1443 43.73C69.3343 43.73 63.6143 50.11 63.6143 57.7C63.6143 65.29 69.3343 71.67 77.1443 71.67C80.7193 71.67 83.3593 70.35 85.1743 68.095V70.625C85.1743 74.53 82.8093 76.51 78.9593 76.51C75.3293 76.51 73.7343 74.97 72.6893 73.045L65.6493 77.115C68.1793 81.625 72.9643 83.77 78.6843 83.77C85.9993 83.77 93.2043 79.865 93.2043 70.625V44.5H85.1743ZM78.5193 64.08C74.6143 64.08 71.8643 61.495 71.8643 57.7C71.8643 53.905 74.6143 51.32 78.5193 51.32C82.4243 51.32 85.1743 53.905 85.1743 57.7C85.1743 61.495 82.4243 64.08 78.5193 64.08ZM116.197 44.5V59.515C116.197 63.42 114.107 65.18 111.082 65.18C108.442 65.18 106.297 63.585 106.297 60.175V44.5H98.0468V61.385C98.0468 68.81 102.777 72.77 108.332 72.77C111.962 72.77 114.712 71.45 116.197 69.415V72H124.447V44.5H116.197ZM137.922 49.395V44.5H129.672V72H137.922V59.57C137.922 54.125 142.762 52.75 146.172 53.3V43.95C142.707 43.95 139.022 45.71 137.922 49.395ZM166.969 44.5V59.515C166.969 63.42 164.879 65.18 161.854 65.18C159.214 65.18 157.069 63.585 157.069 60.175V44.5H148.819V61.385C148.819 68.81 153.549 72.77 159.104 72.77C162.734 72.77 165.484 71.45 166.969 69.415V72H175.219V44.5H166.969ZM200.409 44.5V47.085C198.594 44.995 195.899 43.73 192.214 43.73C185.009 43.73 179.069 50.055 179.069 58.25C179.069 66.445 185.009 72.77 192.214 72.77C195.899 72.77 198.594 71.505 200.409 69.415V72H208.659V44.5H200.409ZM193.864 64.96C190.069 64.96 187.319 62.375 187.319 58.25C187.319 54.125 190.069 51.54 193.864 51.54C197.659 51.54 200.409 54.125 200.409 58.25C200.409 62.375 197.659 64.96 193.864 64.96ZM218.562 72.77C221.422 72.77 223.787 70.405 223.787 67.545C223.787 64.685 221.422 62.32 218.562 62.32C215.702 62.32 213.337 64.685 213.337 67.545C213.337 70.405 215.702 72.77 218.562 72.77Z" fill="#12AAFF"/>
<path d="M230.334 19.8399C232.298 24.2252 231.853 29.3874 229.677 33.5827C227.893 37.0247 225.23 39.8715 223.035 43.0226C222.032 44.4653 221.019 45.9652 220.33 47.608C220.102 48.1545 219.904 48.7144 219.709 49.276C219.513 49.8359 219.346 50.4076 219.158 50.9709C218.982 51.4989 218.776 52.1211 218.142 52.1261H218.131C217.375 52.1244 217.192 51.2349 217.004 50.6346C216.544 49.165 216.063 47.7543 215.353 46.3889C214.526 44.8016 213.011 42.6795 211.965 41.2435L230.334 19.8399ZM212.534 24.7263L206.117 32.6411C207.291 35.2305 209.069 37.4552 210.771 39.6697C211.171 40.1909 211.571 40.7156 211.965 41.2435L220.043 31.2807L219.996 31.2975C217.174 32.3081 214.014 30.8082 212.878 27.9564C212.722 27.5693 212.609 27.1655 212.539 26.7525C212.437 26.0177 212.414 25.4729 212.532 24.7381L212.534 24.7263ZM207.586 17.0654L207.581 17.0722C204.425 21.2187 203.884 26.9593 205.77 31.8188L213.526 22.2528L213.432 22.1688L207.586 17.0654ZM222.447 12.5036L216.226 20.1762C216.241 20.1699 216.255 20.1642 216.27 20.1594C218.863 19.2329 221.786 20.4116 223.11 22.8935C223.395 23.4299 223.633 24.0419 223.721 24.6506C223.831 25.4006 223.859 25.9504 223.74 26.702L223.736 26.7289L229.953 19.0597C228.328 15.9853 225.657 13.6496 222.462 12.5086L222.447 12.5036ZM214.027 21.6374L221.638 12.2497L221.562 12.2295C220.436 11.9224 219.276 11.7681 218.111 11.7704C216.226 11.7888 214.364 12.2114 212.643 13.0118C210.923 13.8122 209.38 14.973 208.112 16.4214L208.086 16.4517L214.027 21.6374Z" fill="url(#paint0_linear_0_1)"/>
<path d="M216.809 0.278873L205.459 5.24784C203.984 5.91037 203 7.54461 203 9.39969V19.7793C203 30.446 208.921 40.4723 217.055 43.5199C217.755 43.7849 218.512 43.7849 219.212 43.5199C227.346 40.4723 233.267 30.4681 233.267 19.7793V9.39969C233.265 8.50099 233.029 7.62415 232.59 6.88624C232.15 6.14833 231.529 5.58447 230.808 5.26992L219.458 0.300958C218.606 -0.0965597 217.66 -0.0965596 216.809 0.278873Z" fill="url(#paint1_linear_0_1)"/>
<defs>
<linearGradient id="paint0_linear_0_1" x1="203.187" y1="11.7704" x2="216.316" y2="41.2347" gradientUnits="userSpaceOnUse">
<stop stop-color="#1246FF"/>
<stop offset="1" stop-color="#12AAFF"/>
</linearGradient>
<linearGradient id="paint1_linear_0_1" x1="201.319" y1="1.40993e-08" x2="215.182" y2="32.3088" gradientUnits="userSpaceOnUse">
<stop stop-color="#1246FF"/>
<stop offset="1" stop-color="#12AAFF"/>
</linearGradient>
</defs>
</svg>
